<svg width="512" height="512" viewBox="0 0 512 512" fill="none" xmlns="http://www.w3.org/2000/svg">
<g clip-path="url(#clip0_4_17)">
<path d="M471.265 121.275C466.662 119.083 464.691 123.468 461.842 125.66C460.966 126.318 460.088 127.414 459.431 128.072C452.637 135.307 444.748 140.13 434.229 139.472C419.108 138.595 406.178 143.418 394.563 155.038C392.152 140.568 384.043 132.018 371.771 126.537C365.415 123.687 358.842 120.837 354.239 114.698C351.171 110.314 350.294 105.271 348.76 100.448C347.665 97.5979 346.788 94.5286 343.282 94.0901C339.556 93.4324 338.24 96.5018 336.707 99.1326C331.009 109.656 328.818 121.275 329.036 132.895C329.475 159.204 340.651 180.25 362.786 195.159C365.416 196.912 365.854 198.666 365.196 201.077C363.662 206.12 361.909 211.162 360.375 216.425C359.279 219.713 357.745 220.37 354.239 219.055C342.185 214.013 331.667 206.559 322.462 197.35C306.683 182.223 292.439 165.343 274.907 152.188C270.743 149.118 266.578 146.268 262.196 143.418C244.225 125.879 264.607 111.41 269.209 109.656C274.031 107.902 270.962 101.763 254.964 101.763C238.966 101.763 224.283 107.244 205.655 114.26C202.806 115.356 200.177 116.014 197.108 116.672C180.234 113.383 162.701 112.725 144.293 114.918C109.667 118.864 82.0545 135.087 61.8927 163.15C37.5671 196.693 31.65 234.841 38.882 274.741C46.333 316.615 67.5906 351.474 100.463 378.44C134.431 406.503 173.66 420.314 218.366 417.683C245.541 416.149 275.784 412.422 309.97 383.483C318.518 387.867 327.722 389.401 342.624 390.717C354.239 391.814 365.196 390.06 373.963 388.305C387.331 385.455 386.454 372.959 381.633 370.767C342.185 352.351 350.733 359.805 342.843 353.666C363.006 329.989 393.247 305.215 405.082 224.975C405.959 218.616 405.082 214.67 405.082 209.409C405.082 206.339 405.739 205.024 409.246 204.805C419.108 203.709 428.75 200.859 437.516 196.036C463.156 182.004 473.457 158.984 475.868 131.36C476.305 127.195 475.868 122.81 471.265 120.618V121.275ZM248.17 369.451C209.82 339.196 191.41 329.331 183.521 329.769C176.289 330.208 177.603 338.319 179.138 343.801C180.672 349.062 182.864 352.789 185.932 357.394C187.904 360.462 189.438 365.067 183.959 368.355C171.687 376.028 150.21 365.724 149.115 365.285C124.131 350.597 103.312 331.085 88.629 304.557C74.3843 278.907 66.2757 251.502 64.7417 222.343C64.3033 215.328 66.4948 212.697 73.5076 211.382C82.712 209.628 92.3546 209.189 101.559 210.725C140.567 216.425 173.879 233.963 201.711 261.587C217.708 277.371 229.762 296.226 242.035 314.642C255.184 334.155 269.428 352.789 287.399 368.135C293.753 373.398 298.795 377.563 303.835 380.632C289.152 382.387 264.607 382.605 247.733 369.451H248.17ZM266.578 251.282C266.578 247.994 268.989 245.582 272.276 245.582C275.564 245.582 273.592 245.582 274.249 246.021C274.907 246.241 275.784 246.679 276.221 247.337C277.318 248.432 277.756 249.748 277.756 251.282C277.756 254.352 275.345 256.982 272.058 256.982C268.77 256.982 266.578 254.571 266.578 251.282ZM323.558 280.441C319.832 281.976 316.326 283.291 312.82 283.291C307.341 283.51 301.424 281.318 298.137 278.687C293.096 274.521 289.589 272.11 288.056 264.657C287.398 261.587 287.836 256.764 288.275 253.914C289.589 247.994 288.275 244.048 283.891 240.541C280.385 237.691 276.003 236.813 271.181 236.813C266.36 236.813 267.675 236.155 266.578 235.498C264.607 234.402 262.853 231.99 264.607 228.921C265.045 227.825 267.456 225.413 268.113 225.193C274.687 221.466 282.138 222.563 289.152 225.413C295.507 228.043 300.548 232.866 307.56 239.882C314.792 248.214 316.107 250.405 320.051 256.764C323.338 261.587 326.188 266.63 328.16 272.33C329.475 275.837 327.722 278.907 323.558 280.66V280.441Z" fill="#1B64F1"/>
</g>
<defs>
<clipPath id="clip0_4_17">
<rect width="512" height="512" fill="white"/>
</clipPath>
</defs>
</svg>
