<svg width="500" height="500" viewBox="0 0 500 500" fill="none" xmlns="http://www.w3.org/2000/svg">
<g clip-path="url(#clip0_7_82)">
<path d="M250 0C388.071 0 500 111.929 500 250C500 388.071 388.071 500 250 500C111.929 500 0 388.071 0 250C0 111.929 111.929 0 250 0ZM306.195 282.687C299.947 276.438 289.817 276.438 283.568 282.687L282.687 283.568C276.438 289.817 276.438 299.947 282.687 306.195L311.021 334.53L283.094 362.458C276.845 368.706 276.845 378.837 283.094 385.085L283.976 385.967C290.224 392.215 300.354 392.215 306.603 385.967L334.53 358.039L362.051 385.56C368.299 391.808 378.429 391.808 384.678 385.56L385.56 384.678C391.808 378.429 391.808 368.299 385.56 362.051L358.039 334.53L385.968 306.603C392.215 300.354 392.216 290.224 385.968 283.976L385.086 283.094C378.838 276.845 368.706 276.846 362.458 283.094L334.53 311.021L306.195 282.687Z" fill="url(#paint0_radial_7_82)"/>
</g>
<defs>
<radialGradient id="paint0_radial_7_82" cx="0" cy="0" r="1" gradientUnits="userSpaceOnUse" gradientTransform="translate(433 81.5) rotate(136.141) scale(497.195)">
<stop stop-color="#1412A1"/>
<stop offset="1" stop-color="#650259"/>
</radialGradient>
<clipPath id="clip0_7_82">
<rect width="500" height="500" fill="white"/>
</clipPath>
</defs>
</svg>
