<svg width="513" height="513" viewBox="0 0 513 513" fill="none" xmlns="http://www.w3.org/2000/svg">
<path d="M70.3059 308.33C70.3059 327.013 74.2867 341.357 79.49 350.035C86.312 361.401 96.4872 366.217 106.861 366.217C120.241 366.217 132.481 362.797 156.069 329.191C174.966 302.255 197.232 264.446 212.215 240.744L237.586 200.586C255.211 172.698 275.611 141.695 299.001 120.681C318.096 103.529 338.695 94 359.425 94C394.23 94 427.381 114.776 452.754 153.742C480.521 196.417 494 250.17 494 305.641C494 338.617 487.69 362.849 476.952 381.991C466.58 400.504 446.361 419 412.35 419V366.217C441.471 366.217 448.74 338.651 448.74 307.105C448.74 262.149 438.565 212.259 416.149 176.611C400.242 151.326 379.627 135.876 356.947 135.876C332.417 135.876 312.679 154.934 290.495 188.914C278.7 206.967 266.592 228.969 252.999 253.795L238.032 281.105C207.969 336.015 200.354 348.521 185.322 369.161C158.976 405.302 136.477 419 106.861 419C71.7264 419 49.5092 403.329 35.7495 379.711C24.5171 360.466 19 335.215 19 306.441L70.3059 308.33Z" fill="#0081FB"/>
<path d="M56.5001 162.75C80.182 125.401 114.358 94 153.556 94C176.256 94 198.824 100.874 222.39 120.562C248.168 142.086 275.641 177.53 309.916 235.945L322.206 256.909C351.875 307.479 368.755 333.496 378.634 345.765C391.34 361.521 400.238 366.218 411.795 366.218C441.115 366.218 448.433 338.651 448.433 307.105L494 305.641C494 338.618 487.648 362.849 476.838 381.991C466.394 400.504 446.038 419 411.795 419C390.508 419 371.649 414.27 350.794 394.14C334.763 378.69 316.02 351.244 301.601 326.571L258.711 253.268C237.191 216.479 217.45 189.05 206.025 176.629C193.735 163.271 177.936 147.14 152.725 147.14C132.319 147.14 114.99 161.79 100.488 184.2L56.5001 162.75Z" fill="#0081FB"/>
<path d="M155.67 147.472C135.306 147.472 118.013 162.215 103.541 184.765C83.0781 216.63 70.548 264.092 70.548 309.672C70.548 328.472 74.5476 342.906 79.7755 351.639L35.8286 381.5C24.5431 362.135 19 336.725 19 307.771C19 255.12 33.0073 200.244 59.6442 157.866C83.2772 120.283 117.383 94 156.5 94L155.67 147.472Z" fill="#0081FB"/>
</svg>
