<svg width="512" height="512" viewBox="0 0 512 512" fill="none" xmlns="http://www.w3.org/2000/svg">
<g clip-path="url(#clip0_4_19)">
<path d="M10 192.874C21.9038 172.343 33.8223 151.812 45.7261 131.282C48.9084 125.801 53.6522 123.409 60.1049 123.467C78.0638 123.627 96.0079 123.467 113.967 123.641C117.503 123.67 119.403 122.293 121.112 119.349C140.146 86.6981 159.593 54.2932 178.259 21.4389C183.164 12.7976 189.323 9.7673 198.928 10.0138C217.286 10.4777 235.657 10.2603 254.028 10.0863C261.571 10.0138 266.845 12.8845 270.587 19.3945C278.542 33.2265 286.941 46.8262 294.91 60.6437C296.649 63.6594 298.609 64.7324 302.084 64.7179C340.758 64.6018 379.431 64.7758 418.088 64.5293C425.837 64.4859 430.744 67.5306 434.471 73.9536C444.783 91.7871 455.346 109.476 465.88 127.179C471.169 136.081 470.668 139.386 465.055 147.999C458.661 157.829 453.078 168.167 447.141 178.287C444.592 182.636 442.175 187.074 439.45 191.336C438.022 193.583 437.977 195.396 439.333 197.702C459.427 231.788 479.42 265.919 499.529 300.005C502.504 305.05 502.962 309.908 499.971 315.026C489.217 333.381 478.55 351.809 467.677 370.107C464.849 374.863 460.031 376.472 454.565 376.472C438.124 376.472 421.697 376.587 405.256 376.457C401.765 376.428 399.85 377.588 398.096 380.589C378.679 413.965 359.085 447.226 339.593 480.558C336.323 486.17 331.536 488.938 325.039 488.938C302.394 488.968 279.737 489.011 257.092 488.997C251.538 488.997 247.31 486.62 244.481 481.834C235.569 466.654 226.537 451.547 217.757 436.309C215.901 433.104 213.838 431.713 209.949 431.726C170.584 431.871 131.233 431.799 91.8681 431.871C85.3416 431.871 80.4652 429.508 77.1651 423.839C66.9408 406.281 56.6576 388.738 46.3154 371.237C42.7649 365.235 43.6636 359.653 47.0668 353.94C55.1549 340.326 63.0515 326.625 71.066 312.981C72.436 310.633 73.2316 308.602 71.5963 305.847C51.0003 270.964 30.5075 235.992 10 201.064C10 198.354 10 195.627 10 192.917V192.874ZM309.953 138.183C272.385 138.183 234.817 138.183 197.249 138.183C191.827 138.183 191.489 137.56 194.17 132.992C203.687 116.754 213.146 100.457 222.81 84.3058C224.622 81.29 224.475 78.9557 222.751 76.0559C213.484 60.4551 204.379 44.7529 195.201 29.1088C193.153 25.629 192.667 25.6145 190.723 28.9347C170.156 64.0074 149.561 99.0656 129.097 134.196C127.344 137.226 125.325 138.314 121.878 138.299C102.682 138.169 83.4854 138.212 64.289 138.242C59.8103 138.242 59.4862 138.807 61.6813 142.548C82.4246 177.838 103.183 213.113 123.926 248.403C145.362 284.869 166.812 321.333 188.233 357.797C190.841 362.234 190.605 362.597 185.316 362.597C166.399 362.597 147.469 362.683 128.552 362.51C124.795 362.48 122.512 363.524 120.626 366.844C111.904 382.126 102.903 397.263 94.0337 412.458C91.2935 417.155 91.3377 417.184 97.0391 417.184C116.928 417.184 136.817 417.184 156.706 417.184C177.286 417.184 197.868 417.227 218.449 417.141C221.499 417.141 223.709 417.851 225.197 420.693C227.288 424.665 229.705 428.479 231.988 432.365C239.502 445.196 247.03 458.027 254.544 470.859C255.722 472.875 256.797 475.18 258.816 471.367C260.348 468.481 262.16 465.741 263.811 462.914C304.679 393.087 345.545 323.261 386.428 253.435C388.491 249.911 388.844 249.897 390.847 253.318C400.513 269.803 410.221 286.245 419.738 302.803C421.521 305.905 423.584 307.196 427.267 307.167C445.357 307.008 463.449 307.109 481.54 307.094C486.565 307.094 486.727 306.776 484.177 302.44C463.802 267.73 443.442 233.005 422.993 198.339C421.403 195.657 421.388 193.598 423.008 190.886C432.674 174.721 442.146 158.453 451.619 142.186C452.327 140.967 454.05 139.663 453.019 138.255C452.12 137.009 450.175 137.676 448.702 137.69C437.255 137.82 425.808 138.125 414.361 138.155C379.563 138.212 344.751 138.183 309.953 138.183Z" fill="#5944D1"/>
</g>
<defs>
<clipPath id="clip0_4_19">
<rect width="512" height="512" fill="white"/>
</clipPath>
</defs>
</svg>
