<svg width="512" height="513" viewBox="0 0 512 513" fill="none" xmlns="http://www.w3.org/2000/svg">
<g clip-path="url(#clip0_4_21)">
<mask id="mask0_4_21" style="mask-type:luminance" maskUnits="userSpaceOnUse" x="0" y="0" width="512" height="513">
<path d="M512 0H0V513H512V0Z" fill="white"/>
</mask>
<g mask="url(#mask0_4_21)">
<path d="M256 513C397.385 513 512 398.161 512 256.5C512 114.839 397.385 0 256 0C114.615 0 0 114.839 0 256.5C0 398.161 114.615 513 256 513Z" fill="#003425"/>
<path d="M385.809 308.846C385.809 298.84 377.711 290.727 367.724 290.727C357.736 290.727 349.639 298.84 349.639 308.846V402.265C349.639 412.272 357.736 420.385 367.724 420.385C377.711 420.385 385.809 412.272 385.809 402.265V308.846Z" fill="white"/>
<path fill-rule="evenodd" clip-rule="evenodd" d="M360.121 114.018C352.512 107.534 341.099 108.457 334.628 116.081L233.566 235.144C230.957 238.214 229.551 241.907 229.298 245.643C229.157 246.558 229.083 247.494 229.083 248.447V400.656C229.083 410.664 237.18 418.776 247.168 418.776C257.156 418.776 265.253 410.664 265.253 400.656V253.75L362.18 139.56C368.651 131.937 367.728 120.501 360.121 114.018Z" fill="white"/>
<path d="M136.687 105.821C130.355 98.0814 118.96 96.9506 111.236 103.295C103.512 109.64 102.383 121.057 108.715 128.796L180.321 216.314C186.652 224.053 198.047 225.184 205.771 218.839C213.495 212.495 214.625 201.078 208.293 193.338L136.687 105.821Z" fill="white"/>
<path d="M392.632 260.932C404.838 260.932 414.736 251.015 414.736 238.784C414.736 226.554 404.838 216.637 392.632 216.637C380.425 216.637 370.527 226.554 370.527 238.784C370.527 251.015 380.425 260.932 392.632 260.932Z" fill="#00FF25"/>
</g>
</g>
<defs>
<clipPath id="clip0_4_21">
<rect width="512" height="513" fill="white"/>
</clipPath>
</defs>
</svg>
